<?xml version="1.0" standalone="no"?>
<!DOCTYPE svg PUBLIC "-//W3C//DTD SVG 20010904//EN"
 "http://www.w3.org/TR/2001/REC-SVG-20010904/DTD/svg10.dtd">
<svg version="1.0" xmlns="http://www.w3.org/2000/svg"
 width="300.000000pt" height="300.000000pt" viewBox="0 0 300.000000 300.000000"
 preserveAspectRatio="xMidYMid meet">
<metadata>
Created by potrace 1.11, written by Peter Selinger 2001-2013
</metadata>
<g transform="translate(0.000000,300.000000) scale(0.100000,-0.100000)"
fill="#000000" stroke="none">
<path d="M480 1500 l0 -1365 300 0 300 0 0 340 1 340 40 -45 c72 -78 99 -109
333 -372 126 -142 232 -259 235 -259 3 -1 191 -2 417 -3 376 -1 411 0 400 15
-6 9 -79 88 -162 175 -84 87 -173 182 -199 209 -26 28 -106 112 -178 189 -73
76 -152 159 -176 185 -24 25 -61 64 -83 87 -34 35 -37 43 -25 55 319 313 664
649 714 697 l65 62 -409 0 -409 0 -121 -127 c-66 -71 -132 -141 -147 -158 -16
-16 -77 -82 -136 -145 -59 -63 -120 -128 -134 -143 l-26 -28 0 828 0 828 -300
0 -300 0 0 -1365z"/>
<path d="M1655 2805 c-128 -29 -225 -116 -274 -244 -14 -39 -19 -73 -17 -139
1 -77 6 -97 33 -153 52 -104 119 -164 223 -199 144 -48 287 -14 395 94 194
195 124 524 -134 626 -64 25 -157 31 -226 15z"/>
</g>
</svg>
